<svg aria-hidden="true" style="position:absolute;width:0;height:0;overflow:hidden" xmlns="http://www.w3.org/2000/svg"><defs><symbol id="icon-arrow" viewBox="0 0 32 32"><path fill="#fbfbfb" style="fill:var(--color1, #fbfbfb)" d="M26.02 3.149a1.882 1.882 0 0 0-2.126-1.602L7.118 3.905a1.883 1.883 0 0 0 .524 3.728l14.912-2.096 2.096 14.912a1.882 1.882 0 1 0 3.728-.524L26.02 3.149zM5.268 31.604l20.391-27.06-3.007-2.266-20.391 27.06 3.007 2.266z"/></symbol><symbol id="icon-check-green" viewBox="0 0 32 32"><path fill="#54be96" style="fill:var(--color2, #54be96)" d="m4 12-4 4 12 12L32 8l-4-4-16 16-8-8z"/></symbol><symbol id="icon-check" viewBox="0 0 40 32"><path d="m5 11-5 5 15 15L40 6l-5-5-20 20L5 11z"/></symbol><symbol id="icon-chevron" viewBox="0 0 32 32"><path fill="none" stroke="#fbfbfb" style="stroke:var(--color1, #fbfbfb)" stroke-linejoin="round" stroke-linecap="round" stroke-width="3.2" d="m8 20 8-8 8 8"/></symbol><symbol id="icon-circle" viewBox="0 0 32 32"><path d="M30.222 16c0 7.855-6.367 14.222-14.222 14.222S1.778 23.855 1.778 16C1.778 8.145 8.145 1.778 16 1.778S30.222 8.145 30.222 16z"/></symbol><symbol id="icon-clock" viewBox="0 0 32 32"><path stroke-linejoin="round" stroke-linecap="round" stroke-width="2.4" d="M16 29.333c7.364 0 13.333-5.969 13.333-13.333S23.363 2.667 16 2.667C8.636 2.667 2.667 8.637 2.667 16S8.637 29.333 16 29.333z"/><path stroke-linejoin="round" stroke-linecap="round" stroke-width="2.4" d="M16 8v8l5.333 2.667"/></symbol><symbol id="icon-close" viewBox="0 0 32 32"><path stroke-linejoin="round" stroke-linecap="round" stroke-width="2.5" d="M24 8 8 24M8 8l16 16"/></symbol><symbol id="icon-eye-off" viewBox="0 0 32 32"><path stroke-linejoin="round" stroke-linecap="round" stroke-width="3.2" d="M23.92 23.92A13.429 13.429 0 0 1 16 26.667C6.667 26.667 1.333 16 1.333 16A24.605 24.605 0 0 1 8.08 8.08m5.12-2.427a12.161 12.161 0 0 1 2.8-.32C25.333 5.333 30.667 16 30.667 16a24.646 24.646 0 0 1-2.88 4.253m-8.96-1.426a4.01 4.01 0 0 1-2.855 1.273 3.996 3.996 0 0 1-3.779-2.501 3.995 3.995 0 0 1 .056-3.127c.219-.491.534-.932.927-1.298M1.333 1.333l29.333 29.333"/></symbol><symbol id="icon-eye" viewBox="0 0 32 32"><path stroke-linejoin="round" stroke-linecap="round" stroke-width="3.2" d="M1.333 16S6.666 5.333 16 5.333 30.667 16 30.667 16 25.334 26.667 16 26.667C6.667 26.667 1.333 16 1.333 16z"/><path stroke-linejoin="round" stroke-linecap="round" stroke-width="3.2" d="M16 20a4 4 0 1 0 0-8 4 4 0 0 0 0 8z"/></symbol><symbol id="icon-heart-full-green" viewBox="0 0 32 32"><path fill="#54be96" style="fill:var(--color2, #54be96);stroke:var(--color2, #54be96)" stroke="#54be96" stroke-linejoin="round" stroke-linecap="round" stroke-width="2.462" d="M27.787 6.147a7.326 7.326 0 0 0-10.373 0L16.001 7.56l-1.413-1.413a7.333 7.333 0 0 0-10.374 0 7.333 7.333 0 0 0 0 10.374l11.787 11.787 11.787-11.787a7.345 7.345 0 0 0 2.15-5.187 7.33 7.33 0 0 0-2.15-5.187z"/></symbol><symbol id="icon-heart" viewBox="0 0 32 32"><path stroke-linejoin="round" stroke-linecap="round" stroke-width="2.462" d="M27.787 6.147a7.326 7.326 0 0 0-10.373 0L16.001 7.56l-1.413-1.413a7.333 7.333 0 0 0-10.374 0 7.333 7.333 0 0 0 0 10.374l11.787 11.787 11.787-11.787a7.345 7.345 0 0 0 2.15-5.187 7.33 7.33 0 0 0-2.15-5.187z"/></symbol><symbol id="icon-people" viewBox="0 0 32 32"><path fill="#fbfbfb" style="fill:var(--color1, #fbfbfb)" d="m19.043 22.529-.548 2.044L4.189 20.74l.548-2.044s1.095-4.087 8.248-2.171 6.058 6.004 6.058 6.004zm-.976-10.666a3.704 3.704 0 0 0-3.334-4.653 3.706 3.706 0 0 0-3.563 2.057 3.707 3.707 0 0 0 .537 4.079 3.704 3.704 0 0 0 6.36-1.483zm2.01 6.562a5.63 5.63 0 0 1 1.01 4.652l-.548 2.044 4.087 1.095.548-2.044s.994-3.709-5.097-5.747zm1.503-9.454a3.597 3.597 0 0 0-2.134.074 5.288 5.288 0 0 1-1.593 5.947 3.583 3.583 0 0 0 1.811 1.131 3.705 3.705 0 0 0 4.535-2.618 3.704 3.704 0 0 0-2.618-4.535z"/></symbol><symbol id="icon-question" viewBox="0 0 32 32"><path fill="#fbfbfb" style="fill:var(--color1, #fbfbfb)" d="M10.667 9.2c0-2.5 1.913-4.533 4.267-4.533h2.133c2.353 0 4.267 2.033 4.267 4.533v.255c0 1.544-.74 2.982-1.96 3.811l-2.813 1.92c-.826.564-1.505 1.34-1.976 2.256s-.717 1.943-.717 2.986v.106c0 1.254.953 2.267 2.133 2.267s2.133-1.013 2.133-2.267v-.099c0-.581.28-1.119.733-1.431l2.813-1.92c2.44-1.672 3.92-4.54 3.92-7.629V9.2c0-5.008-3.82-9.067-8.533-9.067h-2.133c-4.713 0-8.533 4.059-8.533 9.067 0 1.254.953 2.267 2.133 2.267s2.133-1.013 2.133-2.267zM16 31.867c.707 0 1.386-.298 1.886-.83s.781-1.252.781-2.003c0-.752-.281-1.472-.781-2.003s-1.178-.83-1.886-.83-1.386.298-1.886.83c-.5.531-.781 1.252-.781 2.003s.281 1.472.781 2.003 1.178.83 1.886.83z"/></symbol><symbol id="icon-star" viewBox="0 0 32 32"><path fill="#ffc531" style="fill:var(--color3, #ffc531);stroke:var(--color3, #ffc531)" stroke="#ffc531" stroke-width="2.4" d="M12.4 10.394 16 3.572l3.6 6.822a2.2 2.2 0 0 0 1.571 1.141l7.601 1.315-5.376 5.532a2.2 2.2 0 0 0-.6 1.846l1.098 7.635-6.922-3.404a2.199 2.199 0 0 0-1.941 0l-6.922 3.404 1.098-7.635a2.2 2.2 0 0 0-.6-1.846L3.231 12.85l7.601-1.315a2.202 2.202 0 0 0 1.571-1.141z"/></symbol><symbol id="icon-user" viewBox="0 0 32 32"><path fill="#fbfbfb" style="fill:var(--color1, #fbfbfb)" d="M16 0a8 8 0 1 1 0 16 8 8 0 0 1 0-16zm0 20c8.84 0 16 3.58 16 8v4H0v-4c0-4.42 7.16-8 16-8z"/></symbol><symbol id="icon-chevron1" viewBox="0 0 35 32"><path d="M17.089 6.984a.834.834 0 0 1 .597-.247.853.853 0 0 1 .596.247l10.105 10.105a.844.844 0 0 1-1.192 1.192L17.686 8.77l-9.509 9.511a.844.844 0 0 1-1.192-1.192L17.09 6.984z"/></symbol><symbol id="icon-burger" viewBox="0 0 32 32"><path stroke-linejoin="round" stroke-linecap="round" stroke-width="2.286" d="M4 11.333h24M4 20.667h24"/></symbol></defs></svg>